<?xml version="1.0" standalone="no"?>
<!DOCTYPE svg PUBLIC "-//W3C//DTD SVG 20010904//EN"
 "http://www.w3.org/TR/2001/REC-SVG-20010904/DTD/svg10.dtd">
<svg version="1.0" xmlns="http://www.w3.org/2000/svg"
 width="500.000000pt" height="500.000000pt" viewBox="0 0 500.000000 500.000000"
 preserveAspectRatio="xMidYMid meet">

<g transform="translate(0.000000,500.000000) scale(0.100000,-0.100000)"
fill="#000000" stroke="none">
<path d="M2400 4901 c-30 -9 -95 -45 -145 -78 -49 -33 -105 -66 -124 -72 -49
-16 -179 -14 -253 5 -124 32 -266 -2 -352 -84 -21 -20 -62 -73 -91 -117 -80
-124 -158 -176 -293 -195 -208 -29 -320 -139 -357 -350 -9 -51 -26 -113 -38
-139 -27 -59 -106 -138 -177 -178 -111 -62 -185 -174 -197 -296 -4 -50 0 -86
17 -153 36 -143 14 -254 -75 -368 -59 -77 -86 -152 -87 -241 0 -88 22 -152 79
-233 96 -136 119 -236 85 -372 l-19 -75 -186 -3 -187 -2 0 -25 0 -25 350 0
350 0 0 -325 c0 -346 1 -356 49 -399 11 -10 44 -27 73 -37 53 -17 50 -18 -384
-18 -431 -1 -438 -1 -438 -21 0 -20 7 -20 419 -20 l420 0 51 -50 c68 -66 128
-95 234 -114 160 -28 234 -77 321 -211 28 -44 69 -95 90 -114 90 -78 221 -108
340 -78 33 8 78 18 101 21 57 10 176 -17 228 -51 24 -15 67 -44 97 -64 64 -42
105 -57 177 -62 104 -8 181 18 286 97 105 78 220 98 364 62 99 -25 181 -18
264 22 77 37 127 85 178 173 42 71 99 128 162 160 21 11 84 28 140 39 128 26
178 50 246 117 l53 53 415 0 414 0 0 46 c0 45 -2 48 -156 215 l-156 170 24 27
c150 166 203 224 242 266 42 44 46 53 46 97 l0 49 -180 0 -179 0 -11 43 c-6
23 -14 51 -17 61 -3 11 -5 52 -5 91 1 91 28 165 89 245 64 86 83 142 83 248 0
101 -18 148 -94 251 -26 36 -53 88 -62 119 -21 70 -20 174 2 248 23 79 15 182
-18 256 -35 75 -86 130 -184 194 -46 30 -97 73 -115 95 -38 49 -78 142 -79
184 0 56 -30 149 -65 201 -66 100 -157 155 -290 173 -138 20 -236 85 -305 205
-89 156 -242 230 -407 197 -38 -8 -106 -16 -153 -18 -105 -5 -164 14 -263 86
-117 86 -231 109 -347 72z m-222 -607 c4 -82 -3 -114 -24 -114 -12 0 -13 4 -3
22 7 13 10 49 7 95 -4 51 -2 73 6 70 6 -2 12 -34 14 -73z m72 17 c0 -33 -4
-63 -10 -66 -6 -4 -10 18 -10 59 0 37 4 66 10 66 6 0 10 -26 10 -59z m269 9
c-54 -49 -69 -58 -69 -41 0 15 89 91 107 91 11 0 -2 -17 -38 -50z m178 -5
c-32 -30 -66 -55 -75 -55 -11 0 4 20 43 55 78 71 107 71 32 0z m178 18 c-10
-43 -22 -51 -80 -55 -29 -1 -51 -1 -49 2 19 18 112 79 123 79 9 1 11 -6 6 -26z
m43 -13 c2 -36 0 -40 -23 -40 -29 0 -29 -2 -10 44 20 47 31 46 33 -4z m118
-68 c-8 -33 -11 -64 -7 -68 3 -4 0 -4 -6 0 -16 9 -10 94 8 128 19 35 21 8 5
-60z m-1091 51 c-8 -21 -84 -239 -92 -265 -5 -16 2 -18 56 -18 76 0 82 -20 6
-21 -74 -2 -74 -2 -85 -19 -22 -34 -12 -50 32 -50 30 0 39 -3 31 -11 -5 -5
-30 -9 -54 -7 -40 3 -44 5 -41 28 4 33 112 351 125 368 14 18 30 15 22 -5z
m1256 -106 c43 -129 27 -275 -33 -311 -20 -12 -49 1 -55 25 -3 8 0 7 7 -3 18
-29 38 -21 62 25 33 61 30 175 -6 276 -30 86 -30 87 -12 72 7 -6 24 -44 37
-84z m-1120 58 c39 -21 28 -39 -13 -22 -32 13 -50 37 -28 37 6 0 24 -7 41 -15z
m-45 -91 c18 -43 15 -49 -14 -28 -22 15 -31 64 -11 64 5 0 17 -16 25 -36z
m-84 -25 c-1 -19 -6 -37 -11 -42 -11 -11 -23 39 -16 64 10 32 30 15 27 -22z
m1563 -47 c28 -19 55 -40 60 -46 6 -6 23 -19 38 -29 46 -30 24 -30 -29 -1 -72
40 -132 84 -150 111 -15 24 -15 24 8 12 13 -6 46 -28 73 -47z m-435 -102 c6
-11 8 -20 6 -20 -3 0 -10 9 -16 20 -6 11 -8 20 -6 20 3 0 10 -9 16 -20z m-858
-105 c20 -27 64 -77 98 -110 34 -33 73 -81 86 -107 l24 -48 -55 -31 c-30 -17
-52 -35 -49 -41 8 -13 76 -6 92 9 20 19 42 16 42 -6 0 -11 3 -26 6 -34 3 -8
-3 -22 -13 -32 -17 -17 -18 -17 -24 6 -6 20 -7 21 -8 4 -1 -11 -10 -35 -21
-53 -24 -39 -24 -42 -4 -42 8 0 13 4 10 9 -5 7 14 28 57 60 15 12 17 10 17
-23 0 -34 -2 -36 -32 -38 -30 -1 -29 -2 9 -7 33 -5 47 -13 65 -41 21 -30 29
-35 65 -35 33 0 53 -9 111 -53 69 -51 131 -81 179 -84 23 -2 23 -5 17 -63 -10
-92 -23 -121 -114 -243 -71 -96 -87 -112 -106 -108 -18 5 -23 1 -27 -24 -4
-18 -19 -38 -42 -53 -19 -13 -32 -27 -27 -32 4 -5 2 -5 -5 -1 -7 4 -35 -9 -63
-28 -28 -20 -67 -38 -87 -42 -57 -11 -214 1 -224 17 -12 17 -2 -29 18 -85 12
-37 12 -41 -9 -65 -22 -24 -22 -25 -1 -8 21 19 21 18 37 -30 l15 -48 -5 46 -6
46 84 6 c85 6 176 32 235 67 19 11 35 15 38 9 10 -15 34 4 64 49 31 47 105
102 139 102 13 0 22 6 22 15 0 36 37 6 72 -60 15 -27 38 -71 52 -97 26 -47 67
-84 120 -106 l28 -13 -33 41 c-90 109 -109 137 -109 160 l0 24 16 -22 c8 -12
39 -40 68 -61 37 -28 61 -57 85 -102 19 -35 55 -95 81 -134 50 -74 130 -204
130 -211 0 -2 -70 -4 -156 -4 l-156 0 16 22 c30 42 54 93 60 128 5 28 1 23
-17 -20 -12 -30 -33 -70 -47 -88 l-24 -32 -471 0 c-259 0 -478 -2 -486 -5 -8
-3 -142 -4 -299 -3 l-285 3 -3 144 c-2 128 -1 145 15 157 72 57 261 176 309
195 49 19 79 23 179 24 66 1 132 5 148 9 18 6 33 4 45 -5 9 -7 0 5 -20 26 -20
22 -44 56 -52 75 -8 19 -33 67 -55 105 -80 137 -84 155 -86 388 l-2 208 25 19
c27 22 60 25 110 11 17 -5 32 -8 32 -6 0 2 3 10 6 18 3 10 -5 18 -27 26 -47
16 -80 14 -118 -10 l-34 -20 6 73 c3 53 13 89 35 133 16 33 40 85 52 115 13
30 36 69 51 85 15 17 33 43 38 58 l11 28 23 -28 c13 -15 39 -50 59 -78z
m-1168 -281 c3 -9 6 -25 6 -36 0 -10 7 -26 15 -34 21 -22 19 -49 -9 -103 -13
-25 -39 -80 -59 -121 -19 -41 -52 -93 -73 -114 -38 -38 -124 -99 -131 -93 -7
7 31 114 58 165 16 30 29 64 29 76 0 33 131 276 149 276 5 0 12 -7 15 -16z
m2558 -155 c-31 -28 -62 -38 -62 -21 0 5 11 14 25 20 13 6 30 20 37 31 9 14
16 17 23 10 7 -7 0 -20 -23 -40z m490 -39 c37 -72 37 -75 18 -84 -11 -5 -20
-17 -20 -27 0 -10 -10 -25 -22 -33 -23 -17 -88 -22 -88 -8 0 5 -14 7 -30 4
-80 -12 -102 104 -32 171 29 28 96 57 122 54 8 -1 32 -36 52 -77z m-504 -268
c2 -14 -2 -22 -12 -22 -19 0 -29 17 -22 36 8 22 30 12 34 -14z m-2408 -11 c0
-5 -16 -15 -35 -21 -19 -6 -41 -21 -49 -31 -8 -11 -16 -16 -20 -11 -6 10 39
56 64 65 24 9 40 8 40 -2z m2781 -21 c20 -11 104 -119 97 -125 -2 -2 -31 4
-63 14 -33 10 -102 24 -152 31 -77 11 -93 16 -93 30 0 36 52 58 138 59 29 1
62 -4 73 -9z m115 -5 c11 -3 67 -105 79 -143 6 -21 5 -22 -22 -10 -15 6 -39
23 -53 37 -31 31 -90 112 -90 122 0 7 56 3 86 -6z m133 -11 c3 -2 7 -42 9 -89
4 -78 3 -83 -14 -79 -12 3 -35 39 -61 96 l-42 90 52 -7 c29 -4 54 -9 56 -11z
m-192 -115 c131 -42 203 -75 203 -92 0 -10 -22 -4 -78 24 -92 46 -192 77 -282
85 -96 10 -112 26 -18 20 44 -3 118 -19 175 -37z m18 -36 c44 -15 80 -32 80
-38 -1 -12 -113 -74 -135 -74 -14 -1 -160 135 -160 148 0 15 138 -9 215 -36z
m-2620 13 c108 -108 -77 -335 -189 -231 -31 28 -33 64 -7 96 14 18 17 29 9 42
-15 28 21 81 57 85 17 2 34 10 38 18 13 23 65 17 92 -10z m2776 -83 c48 -29
38 -53 -39 -91 -79 -38 -82 -38 -113 -11 -13 11 -31 25 -39 30 -8 6 -11 12 -5
15 6 2 37 20 70 38 69 40 86 42 126 19z m29 -112 c0 -30 -5 -42 -26 -55 -24
-16 -27 -16 -56 1 -17 10 -31 22 -31 28 0 9 89 64 106 65 4 0 7 -17 7 -39z
m-3056 -75 c89 -21 108 -40 130 -130 13 -51 23 -73 30 -66 5 5 18 10 29 10 13
0 18 -6 15 -22 -2 -16 -10 -23 -25 -22 -12 0 -22 -2 -21 -5 2 -20 -4 -31 -16
-31 -21 0 -126 -73 -175 -122 -23 -24 -51 -60 -62 -80 -19 -38 -25 -73 -11
-64 4 2 14 1 21 -4 8 -4 -12 -7 -48 -6 -34 1 -66 7 -73 15 -11 10 -10 12 2 9
8 -2 18 -7 22 -13 16 -21 7 16 -13 59 -25 54 -103 130 -182 176 l-58 35 4 65
c6 83 25 138 57 161 62 45 254 63 374 35z m3061 4 c-3 -5 -11 -10 -16 -10 -6
0 -7 5 -4 10 3 6 11 10 16 10 6 0 7 -4 4 -10z m-247 -277 c45 -3 82 -10 82
-14 0 -5 -9 -9 -20 -9 -11 0 -20 -2 -20 -5 0 -2 19 -41 42 -86 39 -77 44 -83
97 -107 31 -13 50 -27 43 -29 -7 -3 -34 5 -60 17 -60 28 -229 90 -245 90 -7
-1 22 -14 63 -29 86 -32 214 -101 188 -101 -10 0 -33 9 -52 19 -34 19 -34 19
-71 0 -20 -11 -44 -19 -53 -17 -12 3 -4 10 22 23 35 17 37 20 21 31 -44 33
-275 88 -275 66 0 -3 26 -32 57 -64 32 -32 51 -58 44 -58 -7 0 -56 43 -108 95
-79 80 -93 98 -87 117 3 12 12 28 19 34 31 31 142 41 313 27z m242 -30 c3 -3
-1 -8 -7 -10 -10 -3 -10 -10 -2 -24 6 -11 8 -25 6 -32 -2 -7 -11 2 -20 19 -19
37 -34 44 -88 44 -21 0 -39 5 -39 11 0 11 140 3 150 -8z m-2893 -65 c-3 -8 -6
-5 -6 6 -1 11 2 17 5 13 3 -3 4 -12 1 -19z m-71 -10 c11 -8 4 -72 -10 -85 -10
-10 -51 6 -63 25 -9 15 -9 25 2 45 12 23 11 26 -3 31 -10 2 1 2 23 -1 22 -3
45 -10 51 -15z m-414 -5 c24 -21 23 -45 -2 -68 -29 -26 -70 -7 -70 33 0 49 37
67 72 35z m103 -153 c3 -5 -1 -10 -10 -10 -9 0 -13 5 -10 10 3 6 8 10 10 10 2
0 7 -4 10 -10z m392 -16 c-3 -3 -12 -4 -19 -1 -8 3 -5 6 6 6 11 1 17 -2 13 -5z
m2891 -441 l-3 -388 -1750 0 -1750 0 -3 388 -2 387 1755 0 1755 0 -2 -387z
m711 170 c-156 -167 -310 -345 -306 -355 3 -7 72 -87 153 -177 82 -90 157
-174 167 -187 l19 -24 -444 1 c-371 0 -437 2 -403 13 60 19 81 33 111 71 l27
35 -2 330 -2 330 357 0 358 0 -35 -37z m-3949 -663 c0 -38 -4 -70 -8 -70 -21
0 -190 53 -209 66 -13 8 -30 28 -38 44 l-16 30 136 0 135 0 0 -70z m3240 60
c0 -6 -15 -26 -32 -44 -27 -27 -51 -39 -128 -60 -52 -14 -98 -26 -101 -26 -8
0 -11 118 -4 130 8 14 265 13 265 0z m-2326 -129 l29 -30 -33 -40 c-17 -23
-35 -41 -39 -41 -11 0 -31 71 -31 109 0 26 4 31 23 31 13 0 36 -13 51 -29z
m369 23 c13 -4 17 -16 17 -50 0 -42 -1 -44 -29 -44 -16 0 -32 6 -35 13 -5 10
-7 10 -12 0 -8 -18 -51 -16 -58 2 -3 8 -3 22 0 30 7 18 50 20 58 3 5 -10 7
-10 12 0 3 6 14 12 25 12 11 0 19 7 19 18 0 14 -2 15 -9 3 -12 -19 -145 -18
-169 1 -15 12 -16 11 -4 -4 18 -22 6 -58 -18 -58 -10 0 -22 -4 -25 -10 -14
-22 -24 -8 -28 38 l-3 47 -2 -52 c-2 -47 0 -53 18 -53 11 0 20 4 20 9 0 5 11
11 25 13 17 4 25 1 25 -8 0 -8 9 -14 20 -14 12 0 20 7 20 17 0 15 1 15 13 1
10 -14 35 -16 171 -15 139 2 160 4 170 20 17 26 -5 52 -43 52 -17 0 -36 6 -40
14 -8 12 -14 12 -41 -1 -36 -17 -70 -13 -70 8 0 11 24 14 115 14 l115 0 0 -55
c0 -48 2 -55 20 -55 12 0 20 7 20 18 1 15 1 16 10 1 8 -15 31 -17 150 -17 123
-1 140 1 140 15 0 26 31 53 60 53 23 0 27 -4 28 -30 1 -26 -3 -30 -27 -30 -15
0 -33 6 -40 13 -11 10 -13 9 -9 -3 3 -11 21 -16 61 -18 l57 -3 -2 53 -2 53 -3
-47 c-2 -27 -8 -48 -14 -48 -5 0 -9 21 -9 48 0 30 -3 42 -9 33 -6 -10 -30 -13
-85 -13 -66 1 -76 -1 -75 -16 0 -10 3 -12 6 -4 9 23 23 12 23 -19 0 -28 -2
-30 -32 -27 -27 2 -34 8 -36 30 -2 19 2 28 15 31 10 2 3 4 -15 4 -20 0 -28 -3
-21 -8 10 -6 10 -11 0 -23 -9 -11 -10 -16 -2 -16 6 0 11 -4 11 -10 0 -5 -9
-10 -20 -10 -17 0 -20 7 -20 40 0 31 4 40 17 40 9 0 13 3 10 7 -4 3 -17 1 -30
-5 -12 -6 -34 -12 -49 -15 -22 -3 -28 0 -28 15 0 17 11 18 220 17 l220 -1 -25
-32 -25 -32 40 -39 c22 -22 40 -43 40 -47 0 -4 -277 -8 -616 -8 l-615 0 42 50
42 50 -27 29 -27 29 178 1 c98 0 186 -2 196 -5z m317 -10 c0 -8 -4 -12 -10 -9
-5 3 -10 10 -10 16 0 5 5 9 10 9 6 0 10 -7 10 -16z m700 1 c17 -9 30 -19 30
-24 0 -5 -29 -36 -64 -69 -67 -62 -103 -80 -261 -129 -79 -24 -285 -45 -285
-28 0 4 5 25 12 46 l11 39 193 0 c106 0 195 4 198 9 3 5 -15 32 -40 60 l-47
52 28 30 c27 28 33 29 112 29 56 0 94 -5 113 -15z m-711 -22 l20 -28 1 28 c0
15 5 27 10 27 6 0 10 -20 10 -45 0 -50 -12 -57 -41 -22 l-18 22 -1 -22 c0 -13
-4 -23 -10 -23 -5 0 -10 20 -10 45 0 52 10 56 39 18z m-172 5 c4 -7 8 -25 9
-40 1 -21 -3 -28 -17 -28 -13 0 -19 8 -20 23 l-2 22 -4 -22 c-6 -32 -58 -33
-67 -1 -3 13 -1 27 3 31 13 13 31 -1 24 -18 -3 -8 0 -15 6 -15 6 0 11 9 11 21
0 15 5 19 15 15 9 -3 15 0 15 9 0 18 16 20 27 3z m-261 -20 c-3 -7 -9 -21 -12
-30 -10 -28 -24 -21 -24 12 0 24 4 30 21 30 13 0 19 -5 15 -12z m339 -18 c0
-18 -6 -26 -23 -28 -13 -2 -25 3 -28 12 -10 26 4 48 28 44 17 -2 23 -10 23
-28z m215 0 c0 -27 -3 -30 -30 -30 -32 0 -47 18 -36 45 3 9 18 15 36 15 27 0
30 -3 30 -30z m176 18 c-3 -7 -9 -21 -12 -30 -10 -28 -24 -21 -24 12 0 24 4
30 21 30 13 0 19 -5 15 -12z m-856 -146 c0 -36 -19 -41 -78 -21 -87 30 -86 39
1 39 67 0 77 -2 77 -18z m96 -17 c7 -39 -2 -58 -16 -35 -13 20 -13 70 0 70 5
0 12 -16 16 -35z m74 30 c0 -18 -42 -85 -50 -80 -12 7 26 85 40 85 6 0 10 -2
10 -5z m95 -40 c-46 -42 -85 -58 -85 -35 0 6 6 10 13 10 8 0 31 16 53 35 21
19 46 34 54 34 8 0 -7 -20 -35 -44z m265 0 l-44 -45 -83 0 c-46 0 -83 3 -83 7
0 4 19 24 43 45 41 37 43 37 127 38 l84 0 -44 -45z"/>
<path d="M1996 3389 c-32 -25 -34 -55 -3 -63 34 -9 55 -6 29 5 -30 11 -26 48
6 60 19 7 22 5 22 -14 0 -12 7 -30 14 -40 12 -15 18 -16 40 -6 23 11 31 26 27
52 -2 15 28 7 38 -10 6 -10 11 -13 11 -6 1 44 -135 60 -184 22z m94 -19 c0 -5
-4 -10 -10 -10 -5 0 -10 5 -10 10 0 6 5 10 10 10 6 0 10 -4 10 -10z"/>
<path d="M2409 3190 c-3 -27 -9 -36 -26 -38 -13 -2 -23 1 -23 7 0 18 -54 13
-104 -10 -26 -11 -57 -19 -69 -17 -12 1 -27 -1 -34 -5 -8 -5 -14 1 -19 20 -10
46 -12 50 -13 18 -1 -71 82 -106 169 -71 22 9 54 16 70 16 17 0 30 5 30 12 0
6 7 19 16 29 9 10 14 29 12 46 -4 27 -4 26 -9 -7z"/>
<path d="M2240 3031 c-51 -11 -103 -40 -97 -55 3 -8 0 -19 -6 -25 -8 -8 -8
-11 1 -11 7 0 12 -8 12 -18 0 -9 11 -34 24 -53 24 -35 26 -36 78 -32 84 7 143
31 196 78 37 34 52 41 65 34 29 -17 19 6 -13 30 -65 47 -174 69 -260 52z m237
-54 c13 -14 -13 -26 -77 -36 -72 -12 -189 -14 -215 -5 -30 12 12 44 59 45 23
0 61 4 86 7 47 8 135 1 147 -11z m-137 -92 c-7 -8 -20 -15 -28 -15 -13 0 -12
3 4 15 25 19 40 19 24 0z"/>
<path d="M2345 2840 c-11 -5 -45 -9 -74 -9 -32 -1 -51 -5 -45 -10 13 -11 131
2 146 17 14 14 2 15 -27 2z"/>
<path d="M2172 2385 c0 -16 2 -22 5 -12 2 9 2 23 0 30 -3 6 -5 -1 -5 -18z"/>
<path d="M4070 3378 c0 -8 9 -14 20 -14 24 0 21 20 -3 24 -9 2 -17 -3 -17 -10z"/>
<path d="M1260 2798 c0 -11 38 -10 44 1 3 5 -5 8 -19 7 -14 0 -25 -4 -25 -8z"/>
<path d="M805 2618 c-5 -18 -25 -117 -25 -128 0 -5 52 -9 116 -9 64 0 114 2
111 5 -3 3 -28 6 -56 6 l-51 -1 0 40 c0 36 2 39 28 39 30 0 92 34 92 50 0 16
-210 13 -215 -2z m43 -34 c17 -5 22 -14 22 -38 0 -18 4 -36 10 -42 6 -6 -9 -9
-41 -10 -36 0 -49 3 -45 12 3 7 8 29 12 48 7 38 7 39 42 30z"/>
<path d="M1034 2615 c-3 -8 -4 -20 -1 -27 3 -7 6 -4 6 7 1 18 2 18 17 -3 11
-16 25 -22 55 -22 38 0 39 -1 39 -34 0 -27 4 -35 23 -38 20 -4 23 -1 19 19 -5
28 13 53 39 53 13 0 20 -11 26 -37 4 -21 6 -42 4 -48 -1 -6 2 -6 9 1 11 11 -5
108 -23 132 -15 19 -206 17 -213 -3z"/>
<path d="M1029 2538 c-8 -27 -6 -47 4 -51 10 -4 12 3 9 24 -4 24 -10 37 -13
27z"/>
<path d="M1070 2490 c-13 -9 -13 -10 0 -9 8 0 24 4 35 9 l20 9 -20 0 c-11 0
-27 -4 -35 -9z"/>
<path d="M974 2394 c-22 -33 -10 -72 29 -94 24 -13 30 -13 55 0 34 19 42 72
16 101 -26 29 -79 25 -100 -7z m66 7 c0 -6 -4 -13 -10 -16 -5 -3 -10 1 -10 9
0 9 5 16 10 16 6 0 10 -4 10 -9z m-20 -43 c0 -14 -18 -9 -24 8 -11 28 -6 39 9
20 8 -11 15 -23 15 -28z m38 7 c-14 -31 -23 -25 -14 10 4 14 11 23 16 20 6 -3
5 -16 -2 -30z m13 -32 c-12 -20 -14 -14 -5 12 4 9 9 14 11 11 3 -2 0 -13 -6
-23z m-77 1 c3 -8 2 -12 -4 -9 -6 3 -10 10 -10 16 0 14 7 11 14 -7z m41 -14
c3 -5 1 -10 -4 -10 -6 0 -11 5 -11 10 0 6 2 10 4 10 3 0 8 -4 11 -10z"/>
<path d="M3714 2389 c-31 -9 -49 -32 -39 -49 3 -4 42 -13 87 -20 46 -6 114
-20 151 -30 l68 -19 -18 28 c-10 16 -32 45 -50 65 -31 35 -34 36 -100 35 -37
0 -82 -5 -99 -10z"/>
<path d="M3920 2393 c0 -21 100 -137 129 -149 17 -7 31 -11 31 -8 0 4 -70 146
-74 150 -7 8 -86 14 -86 7z"/>
<path d="M3704 2299 c-4 -8 28 -13 136 -23 41 -4 49 -3 32 4 -32 14 -162 28
-168 19z"/>
<path d="M867 1800 c-52 -41 -56 -130 -8 -174 26 -23 82 -31 125 -16 29 9 36
17 36 37 0 14 8 32 18 39 15 12 10 13 -38 13 -50 0 -53 -1 -36 -14 16 -12 18
-19 8 -40 -30 -66 -114 8 -98 87 13 68 76 92 114 43 26 -33 32 -32 32 8 l0 33
-64 2 c-50 2 -69 -2 -89 -18z"/>
<path d="M1735 1789 c-9 -41 -2 -45 28 -15 17 17 37 26 57 26 36 0 38 6 -37
-101 -29 -42 -53 -79 -53 -83 0 -3 38 -6 84 -6 88 0 96 4 96 51 0 25 -3 24
-38 -11 -18 -18 -41 -30 -56 -30 -14 0 -26 3 -26 6 0 3 27 44 60 91 33 48 60
90 60 95 0 4 -38 8 -84 8 l-84 0 -7 -31z"/>
<path d="M2447 1813 c-4 -3 2 -12 13 -20 17 -12 20 -26 20 -80 0 -48 -5 -72
-17 -85 -15 -17 -14 -18 25 -18 l42 0 -20 20 c-15 15 -20 33 -20 75 0 30 2 55
3 55 2 0 34 -36 72 -80 38 -44 73 -80 78 -80 6 0 7 34 3 89 -7 83 -6 90 13
103 12 8 18 18 14 21 -10 11 -71 8 -78 -3 -3 -5 1 -10 9 -10 19 0 28 -34 24
-85 l-3 -39 -59 72 c-46 57 -64 72 -85 72 -15 0 -31 -3 -34 -7z"/>
<path d="M3348 1813 c-13 -3 -15 -12 -11 -39 5 -31 3 -34 -18 -34 -43 0 -69
-27 -69 -69 0 -55 24 -73 90 -68 51 5 76 16 53 24 -9 3 -13 33 -13 99 0 52 -3
93 -7 93 -5 -1 -16 -3 -25 -6z m-8 -139 c0 -41 -2 -45 -22 -42 -30 4 -39 65
-12 85 25 18 34 7 34 -43z"/>
<path d="M3620 1811 c0 -5 7 -11 15 -15 24 -9 21 -161 -2 -175 -17 -10 -16
-10 2 -12 41 -2 131 2 147 7 30 9 34 52 8 79 -20 22 -21 25 -6 31 24 9 21 60
-6 78 -24 17 -158 23 -158 7z m128 -45 c4 -30 -10 -46 -40 -46 -14 0 -18 9
-18 41 0 38 1 40 28 37 21 -2 28 -9 30 -32z m-3 -72 c30 -31 0 -86 -39 -71
-11 4 -16 19 -16 47 0 33 3 40 19 40 11 0 27 -7 36 -16z"/>
<path d="M3968 1813 c-20 -5 -23 -18 -8 -28 15 -9 13 -162 -2 -168 -7 -3 7 -5
32 -5 25 0 39 2 33 5 -9 3 -13 34 -13 104 0 102 0 103 -42 92z"/>
<path d="M1553 1798 c-22 -29 -20 -33 23 -34 48 -1 53 5 26 29 -22 20 -36 21
-49 5z"/>
<path d="M4070 1785 c-19 -20 -20 -25 -7 -25 9 0 19 5 22 10 4 7 12 7 25 0 32
-17 41 -11 24 15 -9 14 -22 25 -28 25 -7 0 -23 -11 -36 -25z"/>
<path d="M1324 1758 c-18 -20 -20 -31 -15 -82 7 -66 27 -90 55 -67 20 17 21
32 1 25 -12 -5 -15 3 -15 39 0 34 4 46 18 49 10 3 23 -1 30 -8 16 -17 16 -91
0 -97 -7 -3 10 -5 37 -5 28 0 42 2 33 5 -13 3 -18 15 -18 43 0 32 4 39 23 42
12 2 22 10 22 18 0 11 -13 15 -50 16 -88 2 -93 3 -97 25 -3 21 -3 21 -24 -3z"/>
<path d="M2980 1771 c0 -17 -33 -29 -89 -34 -52 -5 -77 -16 -53 -24 7 -3 12
-22 12 -48 0 -25 -5 -45 -12 -48 -7 -3 10 -5 37 -5 28 0 42 2 33 5 -13 3 -18
15 -18 44 0 32 3 39 19 39 11 0 23 5 26 10 15 24 25 6 25 -45 0 -59 16 -79 48
-58 22 13 28 35 8 27 -13 -5 -16 2 -16 40 0 34 4 46 15 46 8 0 15 5 15 10 0 6
-7 10 -15 10 -8 0 -15 6 -15 14 0 8 -4 18 -10 21 -5 3 -10 2 -10 -4z"/>
<path d="M1072 1728 c-17 -17 -15 -38 4 -38 9 0 18 9 21 20 3 11 9 17 14 14
18 -11 8 -34 -20 -48 -63 -33 -46 -74 29 -74 46 0 79 17 52 26 -7 2 -12 24
-12 52 0 34 -4 50 -16 54 -25 10 -59 7 -72 -6z m65 -80 c-2 -13 -4 -3 -4 22 0
25 2 35 4 23 2 -13 2 -33 0 -45z m-21 -15 c-11 -11 -19 6 -11 24 8 17 8 17 12
0 3 -10 2 -21 -1 -24z"/>
<path d="M1196 1724 c-15 -14 -15 -19 -3 -38 8 -11 26 -27 41 -34 14 -7 26
-17 26 -23 0 -16 -23 -10 -47 13 l-23 21 0 -26 c0 -32 37 -46 76 -28 40 18 32
56 -16 81 -23 12 -38 25 -35 31 7 10 20 5 49 -20 17 -15 18 -14 15 9 -3 20
-11 26 -35 28 -19 2 -38 -3 -48 -14z"/>
<path d="M1521 1714 c-26 -33 -26 -55 -3 -82 59 -71 160 10 106 86 -22 32 -76
30 -103 -4z m79 -40 c0 -32 -10 -54 -25 -54 -25 0 -35 76 -13 98 16 16 38 -10
38 -44z"/>
<path d="M1942 1717 c-12 -13 -22 -33 -22 -46 0 -28 42 -71 70 -71 29 0 70 44
70 75 0 59 -77 86 -118 42z m72 -28 c6 -31 -7 -69 -23 -69 -13 0 -21 26 -21
66 0 27 4 34 19 34 13 0 20 -10 25 -31z"/>
<path d="M2080 1730 c-12 -7 -12 -12 -2 -22 15 -15 16 -70 0 -86 -9 -9 -4 -12
23 -12 l34 0 0 52 c0 43 3 53 18 56 17 3 19 -2 15 -52 l-3 -56 34 0 c26 0 31
3 23 13 -6 7 -12 35 -14 62 l-3 50 -55 2 c-31 1 -62 -2 -70 -7z"/>
<path d="M2250 1725 c-6 -8 -9 -19 -5 -25 11 -17 35 -11 44 12 6 16 10 18 16
8 5 -8 -5 -23 -30 -44 -25 -21 -36 -38 -34 -51 4 -17 13 -20 59 -20 l55 0 -4
55 c-1 30 -8 61 -13 68 -14 17 -73 15 -88 -3z m51 -88 c-8 -8 -11 -7 -11 4 0
9 3 19 7 23 4 4 9 2 11 -4 3 -7 -1 -17 -7 -23z"/>
<path d="M2701 1714 c-27 -35 -26 -59 4 -89 30 -30 54 -31 89 -4 32 25 36 77
8 102 -29 26 -77 22 -101 -9z m79 -40 c0 -32 -10 -54 -25 -54 -25 0 -35 76
-13 98 16 16 38 -10 38 -44z"/>
<path d="M3060 1720 c-28 -28 -27 -84 2 -104 30 -21 61 -20 81 2 24 26 21 33
-8 26 -25 -6 -55 9 -55 27 0 5 18 9 40 9 44 0 52 16 24 44 -21 22 -60 20 -84
-4z m55 -10 c3 -5 -3 -10 -15 -10 -12 0 -18 5 -15 10 3 6 10 10 15 10 5 0 12
-4 15 -10z"/>
<path d="M3430 1720 c-28 -28 -27 -84 2 -104 30 -21 61 -20 81 2 24 26 21 33
-8 26 -25 -6 -55 9 -55 27 0 5 18 9 40 9 44 0 52 16 24 44 -21 22 -60 20 -84
-4z m55 -10 c3 -5 -3 -10 -15 -10 -12 0 -18 5 -15 10 3 6 10 10 15 10 5 0 12
-4 15 -10z"/>
<path d="M3842 1717 c-27 -29 -28 -71 -2 -97 25 -25 62 -26 83 -2 23 25 21 30
-8 24 -25 -4 -55 12 -55 29 0 5 18 9 40 9 33 0 40 3 40 20 0 41 -65 53 -98 17z
m58 -7 c0 -5 -9 -10 -21 -10 -11 0 -17 5 -14 10 3 6 13 10 21 10 8 0 14 -4 14
-10z"/>
<path d="M4052 1720 c-12 -12 -22 -32 -22 -46 0 -30 41 -74 70 -74 29 0 70 44
70 75 0 57 -74 85 -118 45z m72 -31 c6 -31 -7 -69 -23 -69 -13 0 -21 26 -21
66 0 27 4 34 19 34 13 0 20 -10 25 -31z"/>
<path d="M2057 1124 c-8 -8 1 -24 14 -24 5 0 9 7 9 15 0 15 -12 20 -23 9z"/>
<path d="M2180 1090 c0 -5 7 -10 15 -10 8 0 15 5 15 10 0 6 -7 10 -15 10 -8 0
-15 -4 -15 -10z"/>
<path d="M2260 1090 c0 -5 5 -10 10 -10 6 0 10 5 10 10 0 6 -4 10 -10 10 -5 0
-10 -4 -10 -10z"/>
<path d="M2920 1090 c0 -5 5 -10 10 -10 6 0 10 5 10 10 0 6 -4 10 -10 10 -5 0
-10 -4 -10 -10z"/>
<path d="M2460 1090 c0 -5 5 -10 10 -10 6 0 10 5 10 10 0 6 -4 10 -10 10 -5 0
-10 -4 -10 -10z"/>
<path d="M2660 1090 c0 -5 7 -10 15 -10 8 0 15 5 15 10 0 6 -7 10 -15 10 -8 0
-15 -4 -15 -10z"/>
<path d="M0 1854 c0 -27 6 -35 156 -200 46 -49 93 -102 104 -117 l21 -27 -140
-154 c-122 -134 -141 -159 -141 -187 l0 -34 58 65 c31 35 107 120 169 188
l112 124 -166 184 c-91 101 -167 184 -169 184 -2 0 -4 -12 -4 -26z"/>
</g>
</svg>
